PathFileType	4	(X/Y/Z)	C:\Users\°ÂÌØÂü\Desktop\20210112\bx_y_0_902-Unnamed.trc
DataRate	CameraRate	NumFrames	NumMarkers	Units	OrigDataRate	OrigDataStartFrame	OrigNumFrames
50.00	50.00	       6	0	mm	50.00	234	       466
Frame#	Time	
		

234	4.660	-86.45611	98.77785	1129.45203	-852.19781	-67.54187	700.01575							-800.33051	71.05129	563.76740				-839.92310	241.65549	561.07538	-772.64441	204.47354	533.01031	-858.65454	252.90994	482.44714	-664.19287	-69.60207	159.90163				-605.59705	20.87035	166.97086	-678.25391	52.65879	162.75468	-720.37817	157.29488	221.01125	-799.85254	175.72505	181.00447	-777.10571	226.00032	200.47241	-596.43549	223.23779	173.42157	-882.59491	296.21002	144.62416	-562.57520	258.84277	165.99620	-667.10992	300.72913	157.88885	-629.62982	308.41449	161.86029	-527.87366	303.89066	146.41599	-368.29922	-80.61152	1010.42987	-907.09204	80.82432	1106.55823	-773.38300	-12.89615	200.99129	-799.12158	49.03284	172.57733	-845.84387	-46.23328	469.49069	-560.80627	-34.35228	163.00798	-875.61420	-78.86797	141.32495				-822.82904	-35.07592	556.16644	-677.05499	175.63538	161.56265	-621.83038	-79.97601	156.11180	-839.38452	276.66818	858.73743	-865.53473	278.50406	726.59967	-517.90283	-72.71769	142.91913	-758.72113	-15.47544	792.85962	-729.69873	70.10078	220.98499	-762.96161	10.96706	523.23840	-350.40152	273.81152	1056.69922							-795.56720	141.54002	563.51654	-825.33832	-39.87834	603.45807	-840.29352	-84.10871	843.90839	
235	4.680	-85.98070	98.88778	1123.84741	-852.70667	-67.09113	699.91986							-800.62158	70.97303	563.36676				-840.34137	242.03378	560.85254	-772.84521	204.62419	532.85480	-858.80304	252.88042	482.28439	-664.17920	-69.54654	159.94489				-605.51184	20.88924	166.96898	-678.31744	52.62697	162.94395	-720.47943	157.19702	221.16449	-799.81970	175.84969	180.96474	-777.12555	226.12878	200.57216	-596.34338	223.03033	173.51283	-882.62518	296.03879	144.44261	-562.62549	258.81320	165.88472	-667.22284	300.65765	158.21017	-629.62146	308.35553	161.91537	-527.80365	303.87997	146.34921	-368.77051	-79.80718	1006.39368	-906.67462	81.00007	1106.72485	-773.41724	-13.03741	201.00812	-799.00757	49.03793	172.50380	-845.92438	-46.19168	469.45203	-561.08844	-34.33046	163.06157	-875.79523	-78.72449	141.54755				-823.07330	-34.97986	556.17944	-677.04962	176.05952	161.33289	-621.89160	-80.00538	156.01225	-839.70789	277.44193	858.83136	-865.94934	278.85910	726.55457	-518.10315	-72.58018	142.56331	-759.13458	-15.07050	792.57440	-730.01715	70.15292	221.04443	-763.26288	11.36790	522.87695	-350.01675	273.79089	1052.98315							-795.96716	141.74596	563.61578	-825.44147	-39.74300	603.28040	-840.63464	-83.94624	844.04572	
236	4.700	-85.61983	99.06513	1118.13123	-852.71802	-67.18087	699.97644							-800.33051	71.05129	563.76740				-840.48914	242.14769	560.67181	-772.93024	204.74652	532.85651	-858.95325	252.98077	482.34030	-664.15216	-69.65217	159.89377				-605.63422	20.95587	167.14394	-678.27405	52.72924	162.68968	-720.28876	157.25449	221.09514	-799.91241	175.87184	180.90768	-777.30646	226.21173	200.64503	-596.24731	222.99124	173.56871	-882.59625	296.22037	144.63243	-562.60229	258.95255	165.95015	-667.34473	300.65396	158.10800	-629.54065	308.22540	161.79031	-527.94836	304.01215	146.39090	-368.47696	-80.63400	1003.62793	-906.28760	81.29037	1106.71704	-773.38300	-12.89615	200.99129	-798.97473	48.80766	172.38942	-846.09625	-46.12636	469.57288	-560.81982	-34.40166	163.29131	-875.94965	-78.65163	141.20186				-823.22577	-34.66578	556.14117	-677.17828	176.10397	161.40007	-621.90753	-80.06234	155.94592	-839.82361	277.54300	858.84650	-866.37213	279.30948	726.37347	-518.03735	-72.56598	142.70705	-759.40143	-14.78124	792.65216	-729.87604	70.23651	221.18604	-763.26880	11.30901	523.04492	-349.79147	274.17731	1049.23730							-796.16730	142.03372	563.53516	-825.54144	-39.64653	603.25549	-840.72021	-83.80239	844.15381	
237	4.720	-85.31406	99.42139	1113.13086	-852.82678	-67.00668	699.99829	-767.63458	214.59290	793.64954				-800.53754	71.29665	563.48859				-840.64093	242.27353	560.62616	-773.17987	204.64949	532.99036	-859.06439	252.92552	482.20313	-664.19287	-69.60207	159.90163				-605.48877	20.93667	167.03221	-678.18158	52.50539	162.84224	-720.47430	157.08952	221.12381	-799.97345	175.83926	180.97639	-777.31061	226.12115	200.50192	-596.32965	223.01866	173.50319	-882.56842	296.04892	144.50932	-562.65192	258.91321	165.89175	-667.16711	300.86548	158.23906	-629.33655	308.52203	161.87906	-528.05011	304.06073	146.33269	-369.26208	-80.33773	1000.33728	-905.60223	81.41254	1106.62659	-773.48004	-12.90726	201.03926	-799.15320	48.88313	172.58438	-846.10669	-46.16652	469.71078	-560.93140	-34.27907	163.23557	-875.85522	-78.73365	141.22168				-823.26825	-34.79028	556.35193	-677.17828	176.10397	161.40007	-621.96545	-80.00696	156.17392	-840.32434	277.28152	858.57806	-866.61121	279.43152	726.19763	-517.84375	-72.43523	142.62444	-759.33771	-14.68462	792.70435	-729.82190	70.18200	221.12685	-763.34674	11.45988	522.74615	-349.65372	273.97855	1045.95190							-796.41583	142.15352	563.29346	-825.76935	-39.41793	603.16919	-841.23743	-83.38909	843.91785	
238	4.740	-84.71664	99.76615	1108.60779	-852.85413	-66.94825	700.04218	-768.06915	215.71317	794.19440				-801.07758	71.62124	563.13690				-840.64093	242.27353	560.62616	-773.30469	204.85297	532.73914	-859.23663	253.07585	482.28427	-664.10144	-69.53509	159.92287				-605.57654	20.91819	167.03090	-678.25391	52.65879	162.75468	-720.39526	157.21300	221.15530	-799.85156	175.89363	180.82733	-777.40826	226.16187	200.58975	-596.36847	223.12921	173.43689	-882.62518	296.03879	144.44261	-562.49036	258.81393	166.09338	-667.18732	300.74713	158.09343	-629.49799	308.37616	161.91141	-528.02612	303.94760	146.38365	-369.23553	-80.31632	997.86829	-905.47375	81.48370	1106.69934	-773.38300	-12.89615	200.99129	-799.11890	48.76966	172.92964	-846.21436	-46.03205	469.75662	-560.74274	-34.22001	163.30533	-875.97260	-78.59276	141.26392				-823.41956	-34.69865	556.14276	-676.79297	175.74336	161.71906	-621.89441	-79.91444	156.09966	-840.84467	277.04675	858.21210	-866.93390	279.16577	726.03552	-518.13367	-72.47927	142.69780	-759.52277	-14.52521	792.91638	-729.70929	70.18124	220.92744	-763.11353	11.89744	522.80005	-349.53870	273.93704	1042.90393							-796.41583	142.15352	563.29346	-825.77051	-39.47712	603.09900	-841.37250	-83.18467	843.89569	
239	4.760	-84.39745	99.92042	1104.48242	-852.98566	-66.68118	699.89673	-768.24231	215.60709	793.95374				-801.30682	71.62903	563.08459				-840.87500	242.47368	560.72052	-773.35065	204.78592	532.81732	-859.27411	253.03918	482.24094	-664.00964	-69.48795	160.02061				-605.51685	20.90347	167.10603	-678.18158	52.50539	162.84224	-720.37817	157.29488	221.01125	-799.74933	175.82835	180.84090	-777.36743	226.06636	200.45285	-596.34338	223.03033	173.51283	-882.61395	295.97888	144.46294	-562.53033	258.91843	166.10805	-666.99805	300.75037	158.16452	-629.44983	308.46179	161.92334	-528.07397	303.69397	146.18777	-369.60815	-80.04670	994.93933	-905.48029	81.88353	1106.75537	-773.32849	-12.82761	200.97343	-798.98529	48.98644	172.62384	-846.38513	-45.85007	469.82632	-560.71808	-34.20741	163.16731	-875.95447	-78.70157	141.15225				-823.50238	-34.46402	556.09882	-677.36279	175.80367	161.69896	-621.89160	-80.00538	156.01225	-841.09851	277.11908	857.88226	-867.10718	279.60724	726.10138	-518.04376	-72.31112	142.53683	-760.01410	-14.46622	793.00464	-729.86548	70.15605	221.24358	-763.19476	11.78435	523.00592	-349.29089	274.09711	1039.89087							-796.49908	141.95123	563.48505	-826.12885	-39.54020	603.23877	-842.03601	-83.09263	843.87732	
